<svg width="300" height="168" viewBox="0 0 300 168" fill="none" xmlns="http://www.w3.org/2000/svg">
<g clip-path="url(#clip0_778_30)">
<rect width="300" height="168" rx="20" fill="white"/>
<rect x="-8" y="-5" width="58" height="178" rx="2" fill="#414345"/>
<rect x="63" y="76" width="226" height="83" rx="2" fill="#414345"/>
<rect width="71" height="45" rx="2" transform="matrix(1 0 0 -1 218 71)" fill="#414345"/>
<rect width="72" height="45" rx="2" transform="matrix(1 0 0 -1 140 71)" fill="#414345"/>
<rect width="71" height="45" rx="2" transform="matrix(1 0 0 -1 63 71)" fill="#414345"/>
<path d="M101.828 130V107.25H108.25C110.229 107.25 111.979 107.688 113.5 108.562C115.021 109.438 116.193 110.682 117.016 112.297C117.849 113.911 118.271 115.766 118.281 117.859V119.312C118.281 121.458 117.865 123.339 117.031 124.953C116.208 126.568 115.026 127.807 113.484 128.672C111.953 129.536 110.167 129.979 108.125 130H101.828ZM104.828 109.719V127.547H107.984C110.297 127.547 112.094 126.828 113.375 125.391C114.667 123.953 115.312 121.906 115.312 119.25V117.922C115.312 115.339 114.703 113.333 113.484 111.906C112.276 110.469 110.557 109.74 108.328 109.719H104.828ZM132.812 130C132.646 129.667 132.51 129.073 132.406 128.219C131.062 129.615 129.458 130.312 127.594 130.312C125.927 130.312 124.557 129.844 123.484 128.906C122.422 127.958 121.891 126.76 121.891 125.312C121.891 123.552 122.557 122.188 123.891 121.219C125.234 120.24 127.12 119.75 129.547 119.75H132.359V118.422C132.359 117.411 132.057 116.609 131.453 116.016C130.849 115.411 129.958 115.109 128.781 115.109C127.75 115.109 126.885 115.37 126.188 115.891C125.49 116.411 125.141 117.042 125.141 117.781H122.234C122.234 116.938 122.531 116.125 123.125 115.344C123.729 114.552 124.542 113.927 125.562 113.469C126.594 113.01 127.724 112.781 128.953 112.781C130.901 112.781 132.427 113.271 133.531 114.25C134.635 115.219 135.208 116.557 135.25 118.266V126.047C135.25 127.599 135.448 128.833 135.844 129.75V130H132.812ZM128.016 127.797C128.922 127.797 129.781 127.562 130.594 127.094C131.406 126.625 131.995 126.016 132.359 125.266V121.797H130.094C126.552 121.797 124.781 122.833 124.781 124.906C124.781 125.812 125.083 126.521 125.688 127.031C126.292 127.542 127.068 127.797 128.016 127.797ZM147.953 115.688C147.516 115.615 147.042 115.578 146.531 115.578C144.635 115.578 143.349 116.385 142.672 118V130H139.781V113.094H142.594L142.641 115.047C143.589 113.536 144.932 112.781 146.672 112.781C147.234 112.781 147.661 112.854 147.953 113V115.688ZM155.344 122.172L153.531 124.062V130H150.641V106H153.531V120.516L155.078 118.656L160.344 113.094H163.859L157.281 120.156L164.625 130H161.234L155.344 122.172ZM179.109 107.25L186.547 125.812L193.984 107.25H197.875V130H194.875V121.141L195.156 111.578L187.688 130H185.391L177.938 111.625L178.234 121.141V130H175.234V107.25H179.109ZM201.953 121.391C201.953 119.734 202.276 118.245 202.922 116.922C203.578 115.599 204.484 114.578 205.641 113.859C206.807 113.141 208.135 112.781 209.625 112.781C211.927 112.781 213.786 113.578 215.203 115.172C216.63 116.766 217.344 118.885 217.344 121.531V121.734C217.344 123.38 217.026 124.859 216.391 126.172C215.766 127.474 214.865 128.49 213.688 129.219C212.521 129.948 211.177 130.312 209.656 130.312C207.365 130.312 205.505 129.516 204.078 127.922C202.661 126.328 201.953 124.219 201.953 121.594V121.391ZM204.859 121.734C204.859 123.609 205.292 125.115 206.156 126.25C207.031 127.385 208.198 127.953 209.656 127.953C211.125 127.953 212.292 127.38 213.156 126.234C214.021 125.078 214.453 123.464 214.453 121.391C214.453 119.536 214.01 118.036 213.125 116.891C212.25 115.734 211.083 115.156 209.625 115.156C208.198 115.156 207.047 115.724 206.172 116.859C205.297 117.995 204.859 119.62 204.859 121.734ZM220.266 121.406C220.266 118.812 220.88 116.729 222.109 115.156C223.339 113.573 224.948 112.781 226.938 112.781C228.917 112.781 230.484 113.458 231.641 114.812V106H234.531V130H231.875L231.734 128.188C230.578 129.604 228.969 130.312 226.906 130.312C224.948 130.312 223.349 129.51 222.109 127.906C220.88 126.302 220.266 124.208 220.266 121.625V121.406ZM223.156 121.734C223.156 123.651 223.552 125.151 224.344 126.234C225.135 127.318 226.229 127.859 227.625 127.859C229.458 127.859 230.797 127.036 231.641 125.391V117.625C230.776 116.031 229.448 115.234 227.656 115.234C226.24 115.234 225.135 115.781 224.344 116.875C223.552 117.969 223.156 119.589 223.156 121.734ZM246.047 130.312C243.755 130.312 241.891 129.562 240.453 128.062C239.016 126.552 238.297 124.536 238.297 122.016V121.484C238.297 119.807 238.615 118.312 239.25 117C239.896 115.677 240.792 114.646 241.938 113.906C243.094 113.156 244.344 112.781 245.688 112.781C247.885 112.781 249.594 113.505 250.812 114.953C252.031 116.401 252.641 118.474 252.641 121.172V122.375H241.188C241.229 124.042 241.714 125.391 242.641 126.422C243.578 127.443 244.766 127.953 246.203 127.953C247.224 127.953 248.089 127.745 248.797 127.328C249.505 126.911 250.125 126.359 250.656 125.672L252.422 127.047C251.005 129.224 248.88 130.312 246.047 130.312ZM245.688 115.156C244.521 115.156 243.542 115.583 242.75 116.438C241.958 117.281 241.469 118.469 241.281 120H249.75V119.781C249.667 118.312 249.271 117.177 248.562 116.375C247.854 115.562 246.896 115.156 245.688 115.156Z" fill="white"/>
<rect x="63" y="9" width="226" height="11" rx="2" fill="#414345"/>
</g>
<rect x="1" y="1" width="298" height="166" rx="19" stroke="#414345" stroke-width="2"/>
<defs>
<clipPath id="clip0_778_30">
<rect width="300" height="168" rx="20" fill="white"/>
</clipPath>
</defs>
</svg>
