<svg width="300" height="168" viewBox="0 0 300 168" fill="none" xmlns="http://www.w3.org/2000/svg">
<rect width="300" height="168" rx="20" fill="white"/>
<path d="M69.28 80.8C69.3867 81.2267 69.44 81.5467 69.44 81.76C69.44 82.4533 69.2 83.0133 68.72 83.44C68.24 83.8667 67.68 84.08 67.04 84.08C66.5067 84.08 66.0267 83.9467 65.6 83.68C65.2267 83.36 64.9333 82.96 64.72 82.48L58.72 67.84H32.72L26.8 82.48C26.3733 83.5467 25.6533 84.08 24.64 84.08C23.8933 84.08 23.3333 83.8933 22.96 83.52C22.5867 83.1467 22.3733 82.64 22.32 82V81.76C22.32 81.44 22.3467 81.2 22.4 81.04L43.52 29.36C43.9467 28.2933 44.7467 27.76 45.92 27.76C46.4533 27.76 46.9067 27.92 47.28 28.24C47.7067 28.5067 48.0267 28.88 48.24 29.36L69.28 80.8ZM56.8 63.12L45.6 35.76L34.56 63.12H56.8ZM112.879 43.12C113.573 43.12 114.133 43.36 114.559 43.84C115.039 44.32 115.279 44.9067 115.279 45.6V81.6C115.279 82.2933 115.039 82.88 114.559 83.36C114.133 83.7867 113.573 84 112.879 84C112.186 84 111.599 83.7867 111.119 83.36C110.693 82.88 110.479 82.2933 110.479 81.6V76.24C109.146 78.64 107.146 80.6667 104.479 82.32C101.813 83.9733 98.906 84.8 95.7594 84.8C92.186 84.8 88.9594 83.8667 86.0794 82C83.2527 80.1333 81.0127 77.5733 79.3594 74.32C77.7594 71.0667 76.9594 67.4133 76.9594 63.36C76.9594 59.3067 77.786 55.68 79.4394 52.48C81.0927 49.2267 83.3327 46.6933 86.1594 44.88C89.0394 43.0667 92.2127 42.16 95.6794 42.16C98.8794 42.16 101.813 42.9333 104.479 44.48C107.146 46.0267 109.146 48.0533 110.479 50.56V45.6C110.479 44.9067 110.693 44.32 111.119 43.84C111.599 43.36 112.186 43.12 112.879 43.12ZM96.2394 80.32C99.0127 80.32 101.493 79.6 103.679 78.16C105.919 76.6667 107.653 74.64 108.879 72.08C110.159 69.4667 110.799 66.56 110.799 63.36C110.799 60.2667 110.159 57.44 108.879 54.88C107.653 52.32 105.919 50.32 103.679 48.88C101.493 47.3867 99.0127 46.64 96.2394 46.64C93.466 46.64 90.9594 47.36 88.7194 48.8C86.5327 50.24 84.7994 52.24 83.5194 54.8C82.2927 57.3067 81.6794 60.16 81.6794 63.36C81.6794 66.56 82.2927 69.4667 83.5194 72.08C84.746 74.64 86.4527 76.6667 88.6394 78.16C90.8794 79.6 93.4127 80.32 96.2394 80.32Z" fill="#4D4D4D"/>
<path d="M49.108 135.128C49.3867 135.128 49.6273 135.229 49.83 135.432C50.0327 135.635 50.134 135.875 50.134 136.154C50.134 136.711 49.754 137.256 48.994 137.788C48.2593 138.32 47.3347 138.751 46.22 139.08C45.1307 139.435 44.1173 139.612 43.18 139.612C41.736 139.612 40.52 139.447 39.532 139.118C38.5693 138.814 37.5053 138.371 36.34 137.788C35.4027 137.281 34.6047 136.914 33.946 136.686C33.2873 136.458 32.5147 136.344 31.628 136.344C31.2987 136.344 30.9947 136.382 30.716 136.458C30.4627 136.534 30.146 136.661 29.766 136.838C29.2087 137.091 28.8033 137.218 28.55 137.218C28.246 137.218 27.98 137.104 27.752 136.876C27.5493 136.648 27.448 136.382 27.448 136.078C27.448 135.571 27.6633 135.242 28.094 135.09L33.072 133.304C30.868 133.076 28.9173 132.354 27.22 131.138C25.5227 129.897 24.1927 128.288 23.23 126.312C22.2927 124.336 21.824 122.132 21.824 119.7C21.824 117.065 22.3687 114.709 23.458 112.632C24.5473 110.555 26.0547 108.933 27.98 107.768C29.9053 106.603 32.0967 106.02 34.554 106.02C37.0113 106.02 39.2027 106.603 41.128 107.768C43.0533 108.933 44.5607 110.555 45.65 112.632C46.7393 114.709 47.284 117.065 47.284 119.7C47.284 121.955 46.866 124.019 46.03 125.894C45.2193 127.769 44.0793 129.327 42.61 130.568C41.1407 131.809 39.4307 132.645 37.48 133.076L33.49 134.406C34.2247 134.482 34.8833 134.634 35.466 134.862C36.074 135.115 36.834 135.457 37.746 135.888C38.7847 136.42 39.7093 136.813 40.52 137.066C41.3307 137.345 42.2427 137.484 43.256 137.484C44.1173 137.484 44.852 137.37 45.46 137.142C46.0933 136.914 46.7013 136.623 47.284 136.268C47.512 136.141 47.7527 135.951 48.006 135.698C48.1833 135.546 48.3607 135.407 48.538 135.28C48.7407 135.179 48.9307 135.128 49.108 135.128ZM24.256 119.7C24.256 121.904 24.6867 123.88 25.548 125.628C26.4347 127.351 27.6507 128.693 29.196 129.656C30.7667 130.619 32.5527 131.1 34.554 131.1C36.5553 131.1 38.3287 130.619 39.874 129.656C41.4447 128.693 42.6607 127.351 43.522 125.628C44.4087 123.88 44.852 121.904 44.852 119.7C44.852 117.496 44.4087 115.533 43.522 113.81C42.6607 112.062 41.4447 110.707 39.874 109.744C38.3287 108.781 36.5553 108.3 34.554 108.3C32.5527 108.3 30.7667 108.781 29.196 109.744C27.6507 110.707 26.4347 112.062 25.548 113.81C24.6867 115.533 24.256 117.496 24.256 119.7ZM68.1228 113.696C68.4522 113.696 68.7182 113.81 68.9208 114.038C69.1488 114.241 69.2628 114.507 69.2628 114.836V125.552C69.2628 128.035 68.5662 129.947 67.1728 131.29C65.7795 132.607 63.8542 133.266 61.3968 133.266C58.9648 133.266 57.0522 132.607 55.6588 131.29C54.2908 129.947 53.6068 128.035 53.6068 125.552L53.6068 114.836C53.6068 114.507 53.7082 114.241 53.9108 114.038C54.1388 113.81 54.4175 113.696 54.7468 113.696C55.0762 113.696 55.3422 113.81 55.5448 114.038C55.7728 114.241 55.8868 114.507 55.8868 114.836L55.8868 125.552C55.8868 127.376 56.3682 128.769 57.3308 129.732C58.2935 130.669 59.6488 131.138 61.3968 131.138C63.1702 131.138 64.5382 130.669 65.5008 129.732C66.4888 128.769 66.9828 127.376 66.9828 125.552V114.836C66.9828 114.507 67.0842 114.241 67.2868 114.038C67.5148 113.81 67.7935 113.696 68.1228 113.696ZM78.5856 131.86C78.5856 132.189 78.4716 132.468 78.2436 132.696C78.0409 132.899 77.7749 133 77.4456 133C77.1163 133 76.8376 132.899 76.6096 132.696C76.4069 132.468 76.3056 132.189 76.3056 131.86V114.38C76.3056 114.051 76.4069 113.785 76.6096 113.582C76.8376 113.354 77.1163 113.24 77.4456 113.24C77.7749 113.24 78.0409 113.354 78.2436 113.582C78.4716 113.785 78.5856 114.051 78.5856 114.38V131.86ZM77.4456 110.694C76.9389 110.694 76.5463 110.58 76.2676 110.352C75.9889 110.099 75.8496 109.744 75.8496 109.288V108.908C75.8496 108.452 75.9889 108.11 76.2676 107.882C76.5716 107.629 76.9769 107.502 77.4836 107.502C78.4969 107.502 79.0036 107.971 79.0036 108.908V109.288C79.0036 109.744 78.8643 110.099 78.5856 110.352C78.3323 110.58 77.9523 110.694 77.4456 110.694ZM94.0466 113.126C95.2372 113.126 96.3392 113.265 97.3526 113.544C98.3912 113.797 99.2146 114.152 99.8226 114.608C100.456 115.064 100.773 115.558 100.773 116.09C100.773 116.369 100.671 116.622 100.469 116.85C100.291 117.078 100.063 117.192 99.7846 117.192C99.5312 117.192 99.3159 117.141 99.1386 117.04C98.9866 116.939 98.8092 116.787 98.6066 116.584C98.2772 116.255 97.9606 116.014 97.6566 115.862C97.2766 115.685 96.7699 115.545 96.1366 115.444C95.5286 115.317 94.8699 115.254 94.1606 115.254C92.7672 115.254 91.4879 115.609 90.3226 116.318C89.1826 117.027 88.2832 117.99 87.6246 119.206C86.9659 120.422 86.6366 121.765 86.6366 123.234C86.6366 124.754 86.9532 126.122 87.5866 127.338C88.2199 128.554 89.0939 129.517 90.2086 130.226C91.3486 130.91 92.6406 131.252 94.0846 131.252C94.9966 131.252 95.7186 131.176 96.2506 131.024C96.8079 130.872 97.3526 130.657 97.8846 130.378C98.0619 130.277 98.3659 130.049 98.7966 129.694C98.9992 129.517 99.1766 129.39 99.3286 129.314C99.4806 129.213 99.6452 129.162 99.8226 129.162C100.127 129.162 100.367 129.263 100.545 129.466C100.722 129.643 100.811 129.884 100.811 130.188C100.811 130.619 100.507 131.087 99.8986 131.594C99.2906 132.075 98.4546 132.493 97.3906 132.848C96.3266 133.203 95.1486 133.38 93.8566 133.38C92.0072 133.38 90.3606 132.949 88.9166 132.088C87.4726 131.201 86.3452 129.985 85.5346 128.44C84.7492 126.895 84.3566 125.159 84.3566 123.234C84.3566 121.385 84.7619 119.7 85.5726 118.18C86.3832 116.635 87.5232 115.406 88.9926 114.494C90.4619 113.582 92.1466 113.126 94.0466 113.126ZM121.698 130.986C121.926 131.239 122.04 131.531 122.04 131.86C122.04 132.189 121.901 132.468 121.622 132.696C121.369 132.899 121.128 133 120.9 133C120.571 133 120.292 132.861 120.064 132.582L111.666 123.69L108.816 126.122V131.86C108.816 132.189 108.702 132.468 108.474 132.696C108.271 132.899 108.005 133 107.676 133C107.347 133 107.068 132.899 106.84 132.696C106.637 132.468 106.536 132.189 106.536 131.86V106.02C106.536 105.691 106.637 105.425 106.84 105.222C107.068 104.994 107.347 104.88 107.676 104.88C108.005 104.88 108.271 104.994 108.474 105.222C108.702 105.425 108.816 105.691 108.816 106.02V123.348L119.798 113.886C120.026 113.633 120.292 113.506 120.596 113.506C120.875 113.506 121.128 113.633 121.356 113.886C121.584 114.114 121.698 114.367 121.698 114.646C121.698 114.95 121.559 115.241 121.28 115.52L113.452 122.17L121.698 130.986ZM126.496 129.922C126.294 129.593 126.192 129.314 126.192 129.086C126.192 128.757 126.357 128.503 126.686 128.326C126.838 128.174 127.041 128.098 127.294 128.098C127.598 128.098 127.877 128.225 128.13 128.478C129.625 130.454 131.614 131.442 134.096 131.442C135.312 131.442 136.364 131.163 137.25 130.606C138.162 130.023 138.618 129.187 138.618 128.098C138.618 127.034 138.2 126.236 137.364 125.704C136.528 125.172 135.363 124.716 133.868 124.336C131.766 123.804 130.119 123.12 128.928 122.284C127.738 121.423 127.142 120.169 127.142 118.522C127.142 117.483 127.434 116.559 128.016 115.748C128.599 114.912 129.384 114.266 130.372 113.81C131.386 113.354 132.526 113.126 133.792 113.126C134.882 113.126 135.971 113.341 137.06 113.772C138.175 114.177 139.125 114.836 139.91 115.748C140.138 115.925 140.252 116.179 140.252 116.508C140.252 116.812 140.126 117.078 139.872 117.306C139.695 117.458 139.467 117.534 139.188 117.534C138.935 117.534 138.707 117.433 138.504 117.23C137.896 116.546 137.174 116.027 136.338 115.672C135.502 115.317 134.603 115.14 133.64 115.14C132.45 115.14 131.424 115.419 130.562 115.976C129.726 116.533 129.308 117.369 129.308 118.484C129.359 119.497 129.815 120.27 130.676 120.802C131.563 121.334 132.855 121.815 134.552 122.246C135.87 122.575 136.959 122.943 137.82 123.348C138.682 123.753 139.378 124.323 139.91 125.058C140.468 125.793 140.746 126.768 140.746 127.984C140.746 129.631 140.088 130.948 138.77 131.936C137.453 132.899 135.819 133.38 133.868 133.38C130.778 133.38 128.32 132.227 126.496 129.922ZM162.618 113.582C162.947 113.582 163.213 113.696 163.416 113.924C163.644 114.152 163.758 114.431 163.758 114.76V131.86C163.758 132.189 163.644 132.468 163.416 132.696C163.213 132.899 162.947 133 162.618 133C162.289 133 162.01 132.899 161.782 132.696C161.579 132.468 161.478 132.189 161.478 131.86V129.314C160.845 130.454 159.895 131.417 158.628 132.202C157.361 132.987 155.981 133.38 154.486 133.38C152.789 133.38 151.256 132.937 149.888 132.05C148.545 131.163 147.481 129.947 146.696 128.402C145.936 126.857 145.556 125.121 145.556 123.196C145.556 121.271 145.949 119.548 146.734 118.028C147.519 116.483 148.583 115.279 149.926 114.418C151.294 113.557 152.801 113.126 154.448 113.126C155.968 113.126 157.361 113.493 158.628 114.228C159.895 114.963 160.845 115.925 161.478 117.116V114.76C161.478 114.431 161.579 114.152 161.782 113.924C162.01 113.696 162.289 113.582 162.618 113.582ZM154.714 131.252C156.031 131.252 157.209 130.91 158.248 130.226C159.312 129.517 160.135 128.554 160.718 127.338C161.326 126.097 161.63 124.716 161.63 123.196C161.63 121.727 161.326 120.384 160.718 119.168C160.135 117.952 159.312 117.002 158.248 116.318C157.209 115.609 156.031 115.254 154.714 115.254C153.397 115.254 152.206 115.596 151.142 116.28C150.103 116.964 149.28 117.914 148.672 119.13C148.089 120.321 147.798 121.676 147.798 123.196C147.798 124.716 148.089 126.097 148.672 127.338C149.255 128.554 150.065 129.517 151.104 130.226C152.168 130.91 153.371 131.252 154.714 131.252ZM180.005 113.126C182.361 113.126 184.084 113.823 185.173 115.216C186.288 116.584 186.845 118.408 186.845 120.688V131.86C186.845 132.189 186.731 132.468 186.503 132.696C186.275 132.899 186.009 133 185.705 133C185.376 133 185.097 132.899 184.869 132.696C184.667 132.468 184.565 132.189 184.565 131.86V120.802C184.565 119.155 184.147 117.825 183.311 116.812C182.501 115.773 181.234 115.254 179.511 115.254C178.422 115.254 177.383 115.507 176.395 116.014C175.433 116.521 174.647 117.205 174.039 118.066C173.431 118.902 173.127 119.814 173.127 120.802V131.86C173.127 132.189 173.013 132.468 172.785 132.696C172.583 132.899 172.317 133 171.987 133C171.658 133 171.379 132.899 171.151 132.696C170.949 132.468 170.847 132.189 170.847 131.86V114.836C170.847 114.507 170.949 114.241 171.151 114.038C171.379 113.81 171.658 113.696 171.987 113.696C172.317 113.696 172.583 113.81 172.785 114.038C173.013 114.241 173.127 114.507 173.127 114.836V116.926C173.811 115.837 174.787 114.937 176.053 114.228C177.345 113.493 178.663 113.126 180.005 113.126ZM209.726 104.88C210.055 104.88 210.321 104.994 210.524 105.222C210.752 105.425 210.866 105.691 210.866 106.02V131.86C210.866 132.189 210.752 132.468 210.524 132.696C210.321 132.899 210.055 133 209.726 133C209.397 133 209.118 132.899 208.89 132.696C208.687 132.468 208.586 132.189 208.586 131.86V129.2C207.953 130.365 207.003 131.353 205.736 132.164C204.495 132.975 203.114 133.38 201.594 133.38C199.922 133.38 198.402 132.949 197.034 132.088C195.691 131.201 194.627 129.985 193.842 128.44C193.057 126.895 192.664 125.159 192.664 123.234C192.664 121.334 193.057 119.611 193.842 118.066C194.627 116.521 195.691 115.317 197.034 114.456C198.402 113.569 199.909 113.126 201.556 113.126C203.051 113.126 204.431 113.506 205.698 114.266C206.965 115.001 207.927 115.963 208.586 117.154V106.02C208.586 105.691 208.687 105.425 208.89 105.222C209.118 104.994 209.397 104.88 209.726 104.88ZM201.822 131.252C203.139 131.252 204.317 130.91 205.356 130.226C206.42 129.542 207.243 128.592 207.826 127.376C208.434 126.135 208.738 124.754 208.738 123.234C208.738 121.739 208.434 120.384 207.826 119.168C207.243 117.952 206.42 117.002 205.356 116.318C204.317 115.609 203.139 115.254 201.822 115.254C200.505 115.254 199.314 115.609 198.25 116.318C197.211 117.002 196.388 117.952 195.78 119.168C195.197 120.384 194.906 121.739 194.906 123.234C194.906 124.754 195.197 126.122 195.78 127.338C196.388 128.554 197.211 129.517 198.25 130.226C199.314 130.91 200.505 131.252 201.822 131.252Z" fill="#7D7D7D"/>
</svg>
