<svg width="300" height="168" viewBox="0 0 300 168" fill="none" xmlns="http://www.w3.org/2000/svg">
<rect width="300" height="168" rx="20" fill="white"/>
<path d="M44.72 22.2H49.44L73.04 79H67.12L59.76 61.24H34.24L26.96 79H20.96L44.72 22.2ZM58.48 56.84L47.04 28.76L35.44 56.84H58.48ZM89.9175 79.8C87.9442 79.8 86.1042 79.48 84.3975 78.84C82.7442 78.1467 81.2775 77.2133 79.9975 76.04C78.7708 74.8667 77.8108 73.5067 77.1175 71.96C76.4242 70.36 76.0775 68.6533 76.0775 66.84C76.0775 65.0267 76.5042 63.3467 77.3575 61.8C78.2108 60.2533 79.4108 58.92 80.9575 57.8C82.5042 56.68 84.3442 55.8267 86.4775 55.24C88.6108 54.6 90.9575 54.28 93.5175 54.28C95.6508 54.28 97.8108 54.4667 99.9975 54.84C102.184 55.2133 104.131 55.7467 105.838 56.44V52.68C105.838 49 104.798 46.0933 102.718 43.96C100.638 41.7733 97.7575 40.68 94.0775 40.68C91.9442 40.68 89.7575 41.1067 87.5175 41.96C85.2775 42.8133 83.0108 44.04 80.7175 45.64L78.7975 42.04C84.1842 38.4133 89.4108 36.6 94.4775 36.6C99.7042 36.6 103.811 38.0667 106.798 41C109.784 43.9333 111.278 47.9867 111.278 53.16V71.96C111.278 73.4533 111.944 74.2 113.278 74.2V79C112.371 79.16 111.678 79.24 111.198 79.24C109.811 79.24 108.718 78.8933 107.918 78.2C107.171 77.5067 106.771 76.5467 106.718 75.32L106.558 72.04C104.638 74.5467 102.211 76.4667 99.2775 77.8C96.3975 79.1333 93.2775 79.8 89.9175 79.8ZM91.1975 75.64C94.0242 75.64 96.6108 75.1067 98.9575 74.04C101.358 72.9733 103.171 71.56 104.398 69.8C104.878 69.32 105.224 68.8133 105.438 68.28C105.704 67.6933 105.838 67.16 105.838 66.68V59.88C104.024 59.1867 102.131 58.6533 100.158 58.28C98.2375 57.9067 96.2642 57.72 94.2375 57.72C90.3975 57.72 87.2775 58.52 84.8775 60.12C82.4775 61.72 81.2775 63.8267 81.2775 66.44C81.2775 67.72 81.5175 68.92 81.9975 70.04C82.5308 71.16 83.2242 72.1467 84.0775 73C84.9842 73.8 86.0508 74.44 87.2775 74.92C88.5042 75.4 89.8108 75.64 91.1975 75.64Z" fill="#4D4D4D"/>
<path d="M23.382 131L23.382 104.02H34.782C35.9473 104.02 37.0113 104.273 37.974 104.78C38.962 105.261 39.8107 105.907 40.52 106.718C41.2293 107.503 41.774 108.403 42.154 109.416C42.5593 110.429 42.762 111.455 42.762 112.494C42.762 113.482 42.61 114.432 42.306 115.344C42.0273 116.231 41.622 117.041 41.09 117.776C40.5833 118.485 39.9627 119.093 39.228 119.6C38.4933 120.081 37.67 120.411 36.758 120.588L43.37 131H40.368L34.022 121.044H26.042L26.042 131H23.382ZM26.042 118.688H34.858C35.6433 118.688 36.3527 118.523 36.986 118.194C37.6447 117.839 38.202 117.371 38.658 116.788C39.114 116.205 39.4687 115.547 39.722 114.812C39.9753 114.077 40.102 113.305 40.102 112.494C40.102 111.683 39.95 110.911 39.646 110.176C39.3673 109.416 38.9747 108.757 38.468 108.2C37.9867 107.643 37.404 107.199 36.72 106.87C36.0613 106.541 35.3647 106.376 34.63 106.376H26.042L26.042 118.688ZM53.5344 131.38C52.5971 131.38 51.7231 131.228 50.9124 130.924C50.1271 130.595 49.4304 130.151 48.8224 129.594C48.2397 129.037 47.7837 128.391 47.4544 127.656C47.1251 126.896 46.9604 126.085 46.9604 125.224C46.9604 124.363 47.1631 123.565 47.5684 122.83C47.9737 122.095 48.5437 121.462 49.2784 120.93C50.0131 120.398 50.8871 119.993 51.9004 119.714C52.9137 119.41 54.0284 119.258 55.2444 119.258C56.2577 119.258 57.2837 119.347 58.3224 119.524C59.3611 119.701 60.2857 119.955 61.0964 120.284V118.498C61.0964 116.75 60.6024 115.369 59.6144 114.356C58.6264 113.317 57.2584 112.798 55.5104 112.798C54.4971 112.798 53.4584 113.001 52.3944 113.406C51.3304 113.811 50.2537 114.394 49.1644 115.154L48.2524 113.444C50.8111 111.721 53.2937 110.86 55.7004 110.86C58.1831 110.86 60.1337 111.557 61.5524 112.95C62.9711 114.343 63.6804 116.269 63.6804 118.726V127.656C63.6804 128.365 63.9971 128.72 64.6304 128.72V131C64.1997 131.076 63.8704 131.114 63.6424 131.114C62.9837 131.114 62.4644 130.949 62.0844 130.62C61.7297 130.291 61.5397 129.835 61.5144 129.252L61.4384 127.694C60.5264 128.885 59.3737 129.797 57.9804 130.43C56.6124 131.063 55.1304 131.38 53.5344 131.38ZM54.1424 129.404C55.4851 129.404 56.7137 129.151 57.8284 128.644C58.9684 128.137 59.8297 127.466 60.4124 126.63C60.6404 126.402 60.8051 126.161 60.9064 125.908C61.0331 125.629 61.0964 125.376 61.0964 125.148V121.918C60.2351 121.589 59.3357 121.335 58.3984 121.158C57.4864 120.981 56.5491 120.892 55.5864 120.892C53.7624 120.892 52.2804 121.272 51.1404 122.032C50.0004 122.792 49.4304 123.793 49.4304 125.034C49.4304 125.642 49.5444 126.212 49.7724 126.744C50.0257 127.276 50.3551 127.745 50.7604 128.15C51.1911 128.53 51.6977 128.834 52.2804 129.062C52.8631 129.29 53.4837 129.404 54.1424 129.404ZM70.5174 103.26H73.1014V126.516C73.1014 127.251 73.3041 127.833 73.7094 128.264C74.1148 128.669 74.6848 128.872 75.4194 128.872C75.6981 128.872 76.0274 128.834 76.4074 128.758C76.7874 128.682 77.1421 128.581 77.4714 128.454L77.9274 130.544C77.4461 130.747 76.8508 130.911 76.1414 131.038C75.4574 131.165 74.8621 131.228 74.3554 131.228C73.1648 131.228 72.2274 130.899 71.5434 130.24C70.8594 129.556 70.5174 128.606 70.5174 127.39V103.26ZM90.447 131.38C89.003 131.38 87.673 131.114 86.457 130.582C85.2663 130.025 84.2276 129.277 83.341 128.34C82.4543 127.377 81.7576 126.275 81.251 125.034C80.7696 123.793 80.529 122.463 80.529 121.044C80.529 119.651 80.7696 118.346 81.251 117.13C81.7576 115.889 82.4416 114.812 83.303 113.9C84.1896 112.963 85.241 112.228 86.457 111.696C87.673 111.139 88.9903 110.86 90.409 110.86C91.853 110.86 93.1703 111.139 94.361 111.696C95.577 112.228 96.6156 112.963 97.477 113.9C98.3383 114.837 99.0096 115.914 99.491 117.13C99.9723 118.346 100.213 119.638 100.213 121.006C100.213 121.209 100.213 121.411 100.213 121.614C100.213 121.817 100.2 121.956 100.175 122.032H83.227C83.303 123.096 83.5436 124.084 83.949 124.996C84.3796 125.883 84.9243 126.655 85.583 127.314C86.2416 127.973 86.989 128.492 87.825 128.872C88.6863 129.227 89.5983 129.404 90.561 129.404C91.1943 129.404 91.8276 129.315 92.461 129.138C93.0943 128.961 93.677 128.72 94.209 128.416C94.741 128.112 95.2223 127.745 95.653 127.314C96.0836 126.858 96.413 126.364 96.641 125.832L98.883 126.44C98.579 127.175 98.1483 127.846 97.591 128.454C97.0336 129.037 96.3876 129.556 95.653 130.012C94.9183 130.443 94.1076 130.772 93.221 131C92.3343 131.253 91.4096 131.38 90.447 131.38ZM97.743 120.056C97.667 118.992 97.4136 118.029 96.983 117.168C96.5776 116.281 96.0456 115.521 95.387 114.888C94.7536 114.255 94.0063 113.761 93.145 113.406C92.309 113.051 91.4096 112.874 90.447 112.874C89.4843 112.874 88.5723 113.051 87.711 113.406C86.8496 113.761 86.0896 114.255 85.431 114.888C84.7976 115.521 84.2783 116.281 83.873 117.168C83.493 118.055 83.265 119.017 83.189 120.056H97.743ZM129.748 111.202H132.294L123.782 131H121.654L117.398 120.892L113.18 131H111.052L102.54 111.202H105.048L112.268 128.34L116.03 119.296L112.648 111.24H114.814L117.398 117.7L119.982 111.24H122.186L118.804 119.296L122.566 128.34L129.748 111.202ZM141.368 131.38C140.431 131.38 139.557 131.228 138.746 130.924C137.961 130.595 137.264 130.151 136.656 129.594C136.073 129.037 135.617 128.391 135.288 127.656C134.959 126.896 134.794 126.085 134.794 125.224C134.794 124.363 134.997 123.565 135.402 122.83C135.807 122.095 136.377 121.462 137.112 120.93C137.847 120.398 138.721 119.993 139.734 119.714C140.747 119.41 141.862 119.258 143.078 119.258C144.091 119.258 145.117 119.347 146.156 119.524C147.195 119.701 148.119 119.955 148.93 120.284V118.498C148.93 116.75 148.436 115.369 147.448 114.356C146.46 113.317 145.092 112.798 143.344 112.798C142.331 112.798 141.292 113.001 140.228 113.406C139.164 113.811 138.087 114.394 136.998 115.154L136.086 113.444C138.645 111.721 141.127 110.86 143.534 110.86C146.017 110.86 147.967 111.557 149.386 112.95C150.805 114.343 151.514 116.269 151.514 118.726V127.656C151.514 128.365 151.831 128.72 152.464 128.72V131C152.033 131.076 151.704 131.114 151.476 131.114C150.817 131.114 150.298 130.949 149.918 130.62C149.563 130.291 149.373 129.835 149.348 129.252L149.272 127.694C148.36 128.885 147.207 129.797 145.814 130.43C144.446 131.063 142.964 131.38 141.368 131.38ZM141.976 129.404C143.319 129.404 144.547 129.151 145.662 128.644C146.802 128.137 147.663 127.466 148.246 126.63C148.474 126.402 148.639 126.161 148.74 125.908C148.867 125.629 148.93 125.376 148.93 125.148V121.918C148.069 121.589 147.169 121.335 146.232 121.158C145.32 120.981 144.383 120.892 143.42 120.892C141.596 120.892 140.114 121.272 138.974 122.032C137.834 122.792 137.264 123.793 137.264 125.034C137.264 125.642 137.378 126.212 137.606 126.744C137.859 127.276 138.189 127.745 138.594 128.15C139.025 128.53 139.531 128.834 140.114 129.062C140.697 129.29 141.317 129.404 141.976 129.404ZM158.894 137.08C159.097 137.105 159.287 137.118 159.464 137.118C159.667 137.143 159.857 137.156 160.034 137.156C160.49 137.156 160.845 137.093 161.098 136.966C161.377 136.839 161.643 136.561 161.896 136.13C162.15 135.699 162.428 135.079 162.732 134.268C163.062 133.457 163.518 132.368 164.1 131L155.474 111.202H158.134L165.468 128.606L172.27 111.202H174.74L164.48 136.738C164.202 137.473 163.733 138.106 163.074 138.638C162.441 139.195 161.567 139.474 160.452 139.474C160.199 139.474 159.958 139.461 159.73 139.436C159.502 139.436 159.224 139.411 158.894 139.36V137.08Z" fill="#7D7D7D"/>
</svg>
