<svg width="300" height="168" viewBox="0 0 300 168" fill="none" xmlns="http://www.w3.org/2000/svg">
<rect width="300" height="168" rx="20" fill="white"/>
<path d="M75.52 81.24C75.7333 81.6667 75.84 82.12 75.84 82.6C75.84 83.4 75.52 84.0667 74.88 84.6C74.2933 85.1333 73.5733 85.4 72.72 85.4C71.3867 85.4 70.4533 84.76 69.92 83.48L64.24 70.52H34.08L28.32 83.48C27.7867 84.76 26.8533 85.4 25.52 85.4C24.6667 85.4 23.92 85.1333 23.28 84.6C22.64 84.0133 22.32 83.32 22.32 82.52C22.32 82.0933 22.4267 81.6667 22.64 81.24L45.52 30.36C45.84 29.6133 46.32 29.0533 46.96 28.68C47.6 28.3067 48.2933 28.12 49.04 28.12C49.84 28.12 50.56 28.3333 51.2 28.76C51.84 29.1333 52.32 29.6667 52.64 30.36L75.52 81.24ZM36.48 65.08H61.84L49.12 36.36L36.48 65.08ZM100.045 45.08C109.805 45.08 114.685 50.2 114.685 60.44V82.2C114.685 83.16 114.392 83.9333 113.805 84.52C113.272 85.1067 112.525 85.4 111.565 85.4C110.605 85.4 109.832 85.1067 109.245 84.52C108.658 83.9333 108.365 83.16 108.365 82.2V78.36C107.352 80.6533 105.805 82.44 103.725 83.72C101.645 84.9467 99.245 85.56 96.525 85.56C94.0183 85.56 91.6983 85.0533 89.565 84.04C87.485 83.0267 85.8317 81.6133 84.605 79.8C83.3783 77.9867 82.765 75.9867 82.765 73.8C82.765 70.8667 83.5117 68.6 85.005 67C86.4983 65.3467 88.9517 64.1733 92.365 63.48C95.7783 62.7333 100.525 62.36 106.605 62.36H108.365V59.72C108.365 56.52 107.698 54.1733 106.365 52.68C105.085 51.1867 102.978 50.44 100.045 50.44C96.4183 50.44 92.7383 51.4267 89.005 53.4C87.565 54.3067 86.5517 54.76 85.965 54.76C85.325 54.76 84.7917 54.52 84.365 54.04C83.9383 53.56 83.725 52.9467 83.725 52.2C83.725 51.4533 83.9383 50.8133 84.365 50.28C84.845 49.6933 85.5917 49.1067 86.605 48.52C88.4717 47.4533 90.5783 46.6267 92.925 46.04C95.325 45.4 97.6983 45.08 100.045 45.08ZM97.405 80.44C100.605 80.44 103.218 79.3733 105.245 77.24C107.325 75.0533 108.365 72.2533 108.365 68.84V66.52H106.925C102.232 66.52 98.6583 66.7333 96.205 67.16C93.7517 67.5333 91.9917 68.2 90.925 69.16C89.9117 70.0667 89.405 71.4267 89.405 73.24C89.405 75.32 90.1517 77.0533 91.645 78.44C93.1917 79.7733 95.1117 80.44 97.405 80.44Z" fill="#4D4D4D"/>
<path d="M43.332 107.02C43.788 107.02 44.1427 107.172 44.396 107.476C44.6493 107.755 44.776 108.135 44.776 108.616L44.776 132.594C44.776 133.075 44.6367 133.468 44.358 133.772C44.1047 134.051 43.7373 134.19 43.256 134.19C42.7747 134.19 42.3567 133.975 42.002 133.544L26.232 112.454L26.232 132.594C26.232 133.075 26.0927 133.468 25.814 133.772C25.5607 134.051 25.206 134.19 24.75 134.19C24.294 134.19 23.9393 134.051 23.686 133.772C23.4327 133.468 23.306 133.075 23.306 132.594L23.306 108.616C23.306 108.135 23.4327 107.755 23.686 107.476C23.9647 107.172 24.3447 107.02 24.826 107.02C25.3327 107.02 25.7633 107.235 26.118 107.666L41.85 128.756L41.85 108.616C41.85 108.135 41.9767 107.755 42.23 107.476C42.5087 107.172 42.876 107.02 43.332 107.02ZM66.1418 115.114C66.6231 115.114 66.9905 115.253 67.2438 115.532C67.5225 115.811 67.6618 116.178 67.6618 116.634V132.708C67.6618 133.139 67.5225 133.493 67.2438 133.772C66.9905 134.051 66.6231 134.19 66.1418 134.19C65.6858 134.19 65.3185 134.063 65.0398 133.81C64.7865 133.531 64.6598 133.177 64.6598 132.746V130.846C64.0771 131.961 63.2538 132.809 62.1898 133.392C61.1511 133.975 59.9731 134.266 58.6558 134.266C56.4518 134.266 54.7925 133.658 53.6778 132.442C52.5631 131.201 52.0058 129.377 52.0058 126.97L52.0058 116.634C52.0058 116.178 52.1451 115.811 52.4238 115.532C52.7025 115.253 53.0825 115.114 53.5638 115.114C54.0451 115.114 54.4125 115.253 54.6658 115.532C54.9445 115.811 55.0838 116.178 55.0838 116.634L55.0838 126.894C55.0838 128.541 55.4131 129.757 56.0718 130.542C56.7305 131.302 57.7691 131.682 59.1878 131.682C60.8091 131.682 62.1138 131.163 63.1018 130.124C64.0898 129.06 64.5838 127.667 64.5838 125.944V116.634C64.5838 116.178 64.7231 115.811 65.0018 115.532C65.2805 115.253 65.6605 115.114 66.1418 115.114ZM83.8326 115.038C88.2659 115.038 90.4826 117.483 90.4826 122.372V132.67C90.4826 133.151 90.3432 133.531 90.0646 133.81C89.8112 134.063 89.4439 134.19 88.9626 134.19C88.4812 134.19 88.1012 134.063 87.8226 133.81C87.5439 133.531 87.4046 133.151 87.4046 132.67V122.562C87.4046 120.839 87.0626 119.585 86.3786 118.8C85.7199 118.015 84.6559 117.622 83.1866 117.622C81.4892 117.622 80.1339 118.141 79.1206 119.18C78.1072 120.219 77.6006 121.625 77.6006 123.398V132.67C77.6006 133.151 77.4612 133.531 77.1826 133.81C76.9292 134.063 76.5619 134.19 76.0806 134.19C75.5992 134.19 75.2192 134.063 74.9406 133.81C74.6619 133.531 74.5226 133.151 74.5226 132.67V116.634C74.5226 116.178 74.6619 115.811 74.9406 115.532C75.2192 115.253 75.5992 115.114 76.0806 115.114C76.5366 115.114 76.8912 115.253 77.1446 115.532C77.4232 115.811 77.5626 116.165 77.5626 116.596V118.534C78.1706 117.394 79.0192 116.533 80.1086 115.95C81.1979 115.342 82.4392 115.038 83.8326 115.038ZM98.8182 134.19C98.3622 134.19 97.9822 134.063 97.6782 133.81C97.3996 133.531 97.2602 133.151 97.2602 132.67V116.634C97.2602 116.153 97.3996 115.785 97.6782 115.532C97.9822 115.253 98.3622 115.114 98.8182 115.114C99.2742 115.114 99.6416 115.253 99.9202 115.532C100.199 115.785 100.338 116.153 100.338 116.634V132.67C100.338 133.177 100.199 133.557 99.9202 133.81C99.6416 134.063 99.2742 134.19 98.8182 134.19ZM98.8182 111.124C98.2102 111.124 97.7162 110.947 97.3362 110.592C96.9562 110.237 96.7662 109.769 96.7662 109.186C96.7662 108.629 96.9562 108.173 97.3362 107.818C97.7162 107.463 98.2102 107.286 98.8182 107.286C99.4262 107.286 99.9202 107.463 100.3 107.818C100.68 108.173 100.87 108.629 100.87 109.186C100.87 109.769 100.68 110.237 100.3 110.592C99.9202 110.947 99.4262 111.124 98.8182 111.124ZM116.079 131.758C116.966 131.834 117.409 132.239 117.409 132.974C117.409 133.405 117.244 133.734 116.915 133.962C116.611 134.165 116.142 134.241 115.509 134.19L114.483 134.114C112.456 133.962 110.962 133.354 109.999 132.29C109.036 131.226 108.555 129.617 108.555 127.464V117.926H106.009C105.578 117.926 105.236 117.825 104.983 117.622C104.755 117.394 104.641 117.103 104.641 116.748C104.641 116.368 104.755 116.064 104.983 115.836C105.236 115.608 105.578 115.494 106.009 115.494H108.555V111.2C108.555 110.719 108.694 110.351 108.973 110.098C109.252 109.819 109.632 109.68 110.113 109.68C110.569 109.68 110.936 109.819 111.215 110.098C111.494 110.351 111.633 110.719 111.633 111.2V115.494H115.851C116.256 115.494 116.573 115.608 116.801 115.836C117.054 116.064 117.181 116.368 117.181 116.748C117.181 117.103 117.054 117.394 116.801 117.622C116.573 117.825 116.256 117.926 115.851 117.926H111.633V127.616C111.633 129.009 111.912 130.023 112.469 130.656C113.052 131.264 113.913 131.606 115.053 131.682L116.079 131.758ZM129.259 134.266C127.511 134.266 125.966 133.873 124.623 133.088C123.306 132.303 122.28 131.188 121.545 129.744C120.836 128.275 120.481 126.577 120.481 124.652C120.481 122.727 120.836 121.042 121.545 119.598C122.28 118.129 123.306 117.001 124.623 116.216C125.966 115.431 127.511 115.038 129.259 115.038C131.007 115.038 132.553 115.431 133.895 116.216C135.238 117.001 136.264 118.129 136.973 119.598C137.708 121.042 138.075 122.727 138.075 124.652C138.075 126.577 137.708 128.275 136.973 129.744C136.264 131.188 135.238 132.303 133.895 133.088C132.553 133.873 131.007 134.266 129.259 134.266ZM129.259 131.72C131.083 131.72 132.477 131.125 133.439 129.934C134.427 128.718 134.921 126.957 134.921 124.652C134.921 122.397 134.427 120.662 133.439 119.446C132.451 118.205 131.058 117.584 129.259 117.584C127.461 117.584 126.067 118.205 125.079 119.446C124.091 120.662 123.597 122.397 123.597 124.652C123.597 126.932 124.079 128.68 125.041 129.896C126.029 131.112 127.435 131.72 129.259 131.72Z" fill="#7D7D7D"/>
</svg>
