<svg width="300" height="168" viewBox="0 0 300 168" fill="none" xmlns="http://www.w3.org/2000/svg">
<rect width="300" height="168" rx="20" fill="white"/>
<path d="M63.75 90L56.6406 71.8359H33.75L26.7188 90H20L42.5781 32.6562H48.1641L70.625 90H63.75ZM54.5703 65.8594L47.9297 48.1641C47.0703 45.9245 46.1849 43.1771 45.2734 39.9219C44.7005 42.4219 43.8802 45.1693 42.8125 48.1641L36.0938 65.8594H54.5703ZM103.828 90L102.539 83.9062H102.227C100.091 86.5885 97.9557 88.4115 95.8203 89.375C93.7109 90.3125 91.0677 90.7812 87.8906 90.7812C83.6458 90.7812 80.3125 89.6875 77.8906 87.5C75.4948 85.3125 74.2969 82.2005 74.2969 78.1641C74.2969 69.5182 81.2109 64.987 95.0391 64.5703L102.305 64.3359V61.6797C102.305 58.3203 101.576 55.8464 100.117 54.2578C98.6849 52.6432 96.3802 51.8359 93.2031 51.8359C89.6354 51.8359 85.599 52.9297 81.0938 55.1172L79.1016 50.1562C81.2109 49.0104 83.5156 48.112 86.0156 47.4609C88.5417 46.8099 91.0677 46.4844 93.5938 46.4844C98.6979 46.4844 102.474 47.6172 104.922 49.8828C107.396 52.1484 108.633 55.7812 108.633 60.7812V90H103.828ZM89.1797 85.4297C93.2161 85.4297 96.3802 84.3229 98.6719 82.1094C100.99 79.8958 102.148 76.7969 102.148 72.8125V68.9453L95.6641 69.2188C90.5078 69.401 86.7839 70.2083 84.4922 71.6406C82.2266 73.0469 81.0938 75.2474 81.0938 78.2422C81.0938 80.5859 81.7969 82.3698 83.2031 83.5938C84.6354 84.8177 86.6276 85.4297 89.1797 85.4297Z" fill="#4D4D4D"/>
<path d="M47.2754 122.399C47.2754 126.741 46.1745 130.155 43.9727 132.642C41.7832 135.128 38.734 136.371 34.8252 136.371C30.8298 136.371 27.7435 135.153 25.5664 132.716C23.4017 130.267 22.3193 126.815 22.3193 122.362C22.3193 117.946 23.4079 114.526 25.585 112.102C27.762 109.665 30.8545 108.446 34.8623 108.446C38.7588 108.446 41.8018 109.683 43.9912 112.157C46.1807 114.631 47.2754 118.045 47.2754 122.399ZM25.6592 122.399C25.6592 126.073 26.4385 128.863 27.9971 130.768C29.568 132.66 31.8441 133.606 34.8252 133.606C37.8311 133.606 40.1009 132.66 41.6348 130.768C43.1686 128.875 43.9355 126.086 43.9355 122.399C43.9355 118.75 43.1686 115.986 41.6348 114.105C40.1133 112.213 37.8558 111.267 34.8623 111.267C31.8564 111.267 29.568 112.219 27.9971 114.124C26.4385 116.017 25.6592 118.775 25.6592 122.399ZM63.4818 136.371C62.1582 136.371 60.946 136.13 59.8451 135.647C58.7565 135.153 57.8412 134.398 57.099 133.384H56.8763C57.0248 134.571 57.099 135.697 57.099 136.761V145.129H54.0189L54.0189 115.664H56.5238L56.9505 118.447H57.099C57.8907 117.334 58.8122 116.53 59.8636 116.035C60.9151 115.54 62.1211 115.293 63.4818 115.293C66.1784 115.293 68.2565 116.215 69.7162 118.058C71.1882 119.901 71.9242 122.486 71.9242 125.813C71.9242 129.153 71.1758 131.751 69.6791 133.606C68.1947 135.45 66.1289 136.371 63.4818 136.371ZM63.0365 117.909C60.9584 117.909 59.4554 118.484 58.5277 119.635C57.6 120.785 57.1237 122.616 57.099 125.127V125.813C57.099 128.671 57.5752 130.718 58.5277 131.955C59.4802 133.18 61.0078 133.792 63.1107 133.792C64.8672 133.792 66.2403 133.081 67.2298 131.658C68.2318 130.236 68.7328 128.275 68.7328 125.776C68.7328 123.241 68.2318 121.299 67.2298 119.95C66.2403 118.59 64.8425 117.909 63.0365 117.909ZM87.0544 136.371C84.0486 136.371 81.6736 135.456 79.9294 133.625C78.1976 131.794 77.3318 129.252 77.3318 125.999C77.3318 122.721 78.1358 120.117 79.7439 118.188C81.3643 116.258 83.5352 115.293 86.2566 115.293C88.8047 115.293 90.821 116.134 92.3054 117.816C93.7898 119.486 94.532 121.694 94.532 124.44V126.389H80.5232C80.585 128.776 81.1849 130.588 82.323 131.825C83.4734 133.062 85.0876 133.681 87.1657 133.681C89.3552 133.681 91.5199 133.223 93.6599 132.308V135.054C92.5713 135.524 91.5385 135.858 90.5612 136.056C89.5964 136.266 88.4275 136.371 87.0544 136.371ZM86.2195 117.872C84.5866 117.872 83.2816 118.404 82.3044 119.468C81.3396 120.532 80.7706 122.004 80.5974 123.884H91.2292C91.2292 121.942 90.7963 120.457 89.9304 119.431C89.0645 118.392 87.8275 117.872 86.2195 117.872ZM114.857 136V122.845C114.857 121.187 114.48 119.95 113.726 119.134C112.971 118.317 111.79 117.909 110.182 117.909C108.054 117.909 106.496 118.484 105.506 119.635C104.516 120.785 104.022 122.684 104.022 125.331V136H100.941V115.664H103.446L103.947 118.447H104.096C104.727 117.445 105.611 116.672 106.749 116.128C107.887 115.571 109.155 115.293 110.553 115.293C113.002 115.293 114.845 115.887 116.082 117.074C117.319 118.249 117.938 120.136 117.938 122.733V136H114.857ZM152.206 128.782C152.206 131.17 151.34 133.031 149.608 134.367C147.876 135.703 145.526 136.371 142.557 136.371C139.341 136.371 136.867 135.957 135.136 135.128V132.085C136.249 132.555 137.461 132.926 138.772 133.198C140.083 133.47 141.382 133.606 142.669 133.606C144.772 133.606 146.355 133.211 147.419 132.419C148.483 131.615 149.014 130.502 149.014 129.079C149.014 128.139 148.823 127.372 148.439 126.778C148.068 126.172 147.437 125.616 146.547 125.108C145.668 124.601 144.326 124.026 142.52 123.383C139.997 122.48 138.191 121.41 137.102 120.173C136.026 118.936 135.488 117.322 135.488 115.33C135.488 113.24 136.274 111.576 137.845 110.339C139.415 109.102 141.494 108.483 144.079 108.483C146.776 108.483 149.256 108.978 151.519 109.968L150.536 112.714C148.297 111.774 146.12 111.304 144.005 111.304C142.335 111.304 141.03 111.662 140.09 112.38C139.15 113.097 138.679 114.093 138.679 115.367C138.679 116.307 138.853 117.08 139.199 117.687C139.545 118.28 140.127 118.831 140.943 119.338C141.772 119.833 143.034 120.383 144.728 120.989C147.573 122.004 149.528 123.092 150.592 124.255C151.668 125.418 152.206 126.927 152.206 128.782ZM170.936 136L170.323 133.105H170.175C169.161 134.38 168.146 135.245 167.132 135.703C166.13 136.148 164.875 136.371 163.365 136.371C161.349 136.371 159.766 135.852 158.615 134.813C157.477 133.773 156.908 132.295 156.908 130.378C156.908 126.271 160.193 124.119 166.761 123.921L170.212 123.81V122.548C170.212 120.952 169.866 119.777 169.173 119.022C168.493 118.256 167.398 117.872 165.889 117.872C164.194 117.872 162.277 118.392 160.137 119.431L159.191 117.074C160.193 116.53 161.287 116.103 162.475 115.794C163.675 115.485 164.875 115.33 166.074 115.33C168.499 115.33 170.292 115.868 171.455 116.944C172.63 118.021 173.218 119.746 173.218 122.121V136H170.936ZM163.978 133.829C165.895 133.829 167.398 133.303 168.486 132.252C169.587 131.201 170.138 129.729 170.138 127.836V125.999L167.058 126.129C164.609 126.215 162.84 126.599 161.751 127.279C160.675 127.947 160.137 128.993 160.137 130.415C160.137 131.528 160.471 132.376 161.139 132.957C161.819 133.538 162.765 133.829 163.978 133.829ZM194.638 136V122.845C194.638 121.187 194.261 119.95 193.506 119.134C192.752 118.317 191.57 117.909 189.962 117.909C187.835 117.909 186.276 118.484 185.287 119.635C184.297 120.785 183.802 122.684 183.802 125.331V136H180.722V115.664H183.227L183.728 118.447H183.876C184.507 117.445 185.392 116.672 186.53 116.128C187.668 115.571 188.936 115.293 190.334 115.293C192.783 115.293 194.626 115.887 195.863 117.074C197.1 118.249 197.718 120.136 197.718 122.733V136H194.638ZM218.322 130.452C218.322 132.345 217.617 133.804 216.207 134.831C214.797 135.858 212.818 136.371 210.269 136.371C207.573 136.371 205.47 135.944 203.961 135.091V132.233C204.938 132.728 205.983 133.118 207.097 133.402C208.222 133.687 209.305 133.829 210.344 133.829C211.952 133.829 213.189 133.576 214.055 133.068C214.92 132.549 215.353 131.763 215.353 130.712C215.353 129.92 215.007 129.246 214.314 128.689C213.634 128.12 212.298 127.452 210.307 126.686C208.414 125.98 207.066 125.368 206.262 124.849C205.47 124.317 204.876 123.717 204.48 123.049C204.097 122.381 203.905 121.583 203.905 120.655C203.905 118.998 204.579 117.693 205.928 116.74C207.276 115.775 209.125 115.293 211.475 115.293C213.665 115.293 215.805 115.738 217.895 116.629L216.801 119.134C214.76 118.293 212.91 117.872 211.253 117.872C209.793 117.872 208.692 118.101 207.95 118.559C207.208 119.016 206.837 119.647 206.837 120.451C206.837 120.995 206.973 121.459 207.245 121.843C207.53 122.226 207.981 122.591 208.599 122.938C209.218 123.284 210.405 123.785 212.162 124.44C214.574 125.319 216.201 126.203 217.042 127.094C217.895 127.984 218.322 129.104 218.322 130.452Z" fill="#7D7D7D"/>
</svg>
