<svg width="300" height="168" viewBox="0 0 300 168" fill="none" xmlns="http://www.w3.org/2000/svg">
<g clip-path="url(#clip0_778_22)">
<rect width="300" height="168" rx="20" fill="white"/>
<rect x="-6" y="-6" width="56" height="180" rx="2" fill="black"/>
<rect x="63" y="76" width="226" height="83" rx="2" fill="black"/>
<rect width="71" height="45" rx="2" transform="matrix(1 0 0 -1 218 71)" fill="black"/>
<rect width="72" height="45" rx="2" transform="matrix(1 0 0 -1 140 71)" fill="black"/>
<rect width="71" height="45" rx="2" transform="matrix(1 0 0 -1 63 71)" fill="black"/>
<path d="M98.1562 130H95.1406V119.484H83.6719V130H80.6719V107.25H83.6719V117.031H95.1406V107.25H98.1562V130ZM106.172 130H103.281V113.094H106.172V130ZM103.047 108.609C103.047 108.141 103.188 107.745 103.469 107.422C103.76 107.099 104.188 106.938 104.75 106.938C105.312 106.938 105.74 107.099 106.031 107.422C106.323 107.745 106.469 108.141 106.469 108.609C106.469 109.078 106.323 109.469 106.031 109.781C105.74 110.094 105.312 110.25 104.75 110.25C104.188 110.25 103.76 110.094 103.469 109.781C103.188 109.469 103.047 109.078 103.047 108.609ZM110.125 121.406C110.125 118.771 110.734 116.677 111.953 115.125C113.172 113.562 114.786 112.781 116.797 112.781C118.859 112.781 120.469 113.51 121.625 114.969L121.766 113.094H124.406V129.594C124.406 131.781 123.755 133.505 122.453 134.766C121.161 136.026 119.422 136.656 117.234 136.656C116.016 136.656 114.823 136.396 113.656 135.875C112.49 135.354 111.599 134.641 110.984 133.734L112.484 132C113.724 133.531 115.24 134.297 117.031 134.297C118.438 134.297 119.531 133.901 120.312 133.109C121.104 132.318 121.5 131.203 121.5 129.766V128.312C120.344 129.646 118.766 130.312 116.766 130.312C114.786 130.312 113.182 129.516 111.953 127.922C110.734 126.328 110.125 124.156 110.125 121.406ZM113.031 121.734C113.031 123.641 113.422 125.141 114.203 126.234C114.984 127.318 116.078 127.859 117.484 127.859C119.307 127.859 120.646 127.031 121.5 125.375V117.656C120.615 116.042 119.286 115.234 117.516 115.234C116.109 115.234 115.01 115.781 114.219 116.875C113.427 117.969 113.031 119.589 113.031 121.734ZM131.672 115.141C132.953 113.568 134.62 112.781 136.672 112.781C140.245 112.781 142.047 114.797 142.078 118.828V130H139.188V118.812C139.177 117.594 138.896 116.693 138.344 116.109C137.802 115.526 136.953 115.234 135.797 115.234C134.859 115.234 134.036 115.484 133.328 115.984C132.62 116.484 132.068 117.141 131.672 117.953V130H128.781V106H131.672V115.141ZM171.531 122.781C171.25 125.188 170.359 127.047 168.859 128.359C167.37 129.661 165.385 130.312 162.906 130.312C160.219 130.312 158.062 129.349 156.438 127.422C154.823 125.495 154.016 122.917 154.016 119.688V117.5C154.016 115.385 154.391 113.526 155.141 111.922C155.901 110.318 156.974 109.089 158.359 108.234C159.745 107.37 161.349 106.938 163.172 106.938C165.589 106.938 167.526 107.615 168.984 108.969C170.443 110.312 171.292 112.177 171.531 114.562H168.516C168.255 112.75 167.688 111.438 166.812 110.625C165.948 109.812 164.734 109.406 163.172 109.406C161.255 109.406 159.75 110.115 158.656 111.531C157.573 112.948 157.031 114.964 157.031 117.578V119.781C157.031 122.25 157.547 124.214 158.578 125.672C159.609 127.13 161.052 127.859 162.906 127.859C164.573 127.859 165.849 127.484 166.734 126.734C167.63 125.974 168.224 124.656 168.516 122.781H171.531ZM174.422 121.391C174.422 119.734 174.745 118.245 175.391 116.922C176.047 115.599 176.953 114.578 178.109 113.859C179.276 113.141 180.604 112.781 182.094 112.781C184.396 112.781 186.255 113.578 187.672 115.172C189.099 116.766 189.812 118.885 189.812 121.531V121.734C189.812 123.38 189.495 124.859 188.859 126.172C188.234 127.474 187.333 128.49 186.156 129.219C184.99 129.948 183.646 130.312 182.125 130.312C179.833 130.312 177.974 129.516 176.547 127.922C175.13 126.328 174.422 124.219 174.422 121.594V121.391ZM177.328 121.734C177.328 123.609 177.76 125.115 178.625 126.25C179.5 127.385 180.667 127.953 182.125 127.953C183.594 127.953 184.76 127.38 185.625 126.234C186.49 125.078 186.922 123.464 186.922 121.391C186.922 119.536 186.479 118.036 185.594 116.891C184.719 115.734 183.552 115.156 182.094 115.156C180.667 115.156 179.516 115.724 178.641 116.859C177.766 117.995 177.328 119.62 177.328 121.734ZM196.172 113.094L196.266 115.219C197.557 113.594 199.245 112.781 201.328 112.781C204.901 112.781 206.703 114.797 206.734 118.828V130H203.844V118.812C203.833 117.594 203.552 116.693 203 116.109C202.458 115.526 201.609 115.234 200.453 115.234C199.516 115.234 198.693 115.484 197.984 115.984C197.276 116.484 196.724 117.141 196.328 117.953V130H193.438V113.094H196.172ZM215.016 109V113.094H218.172V115.328H215.016V125.812C215.016 126.49 215.156 127 215.438 127.344C215.719 127.677 216.198 127.844 216.875 127.844C217.208 127.844 217.667 127.781 218.25 127.656V130C217.49 130.208 216.75 130.312 216.031 130.312C214.74 130.312 213.766 129.922 213.109 129.141C212.453 128.359 212.125 127.25 212.125 125.812V115.328H209.047V113.094H212.125V109H215.016ZM229.734 115.688C229.297 115.615 228.823 115.578 228.312 115.578C226.417 115.578 225.13 116.385 224.453 118V130H221.562V113.094H224.375L224.422 115.047C225.37 113.536 226.714 112.781 228.453 112.781C229.016 112.781 229.443 112.854 229.734 113V115.688ZM242.219 130C242.052 129.667 241.917 129.073 241.812 128.219C240.469 129.615 238.865 130.312 237 130.312C235.333 130.312 233.964 129.844 232.891 128.906C231.828 127.958 231.297 126.76 231.297 125.312C231.297 123.552 231.964 122.188 233.297 121.219C234.641 120.24 236.526 119.75 238.953 119.75H241.766V118.422C241.766 117.411 241.464 116.609 240.859 116.016C240.255 115.411 239.365 115.109 238.188 115.109C237.156 115.109 236.292 115.37 235.594 115.891C234.896 116.411 234.547 117.042 234.547 117.781H231.641C231.641 116.938 231.938 116.125 232.531 115.344C233.135 114.552 233.948 113.927 234.969 113.469C236 113.01 237.13 112.781 238.359 112.781C240.307 112.781 241.833 113.271 242.938 114.25C244.042 115.219 244.615 116.557 244.656 118.266V126.047C244.656 127.599 244.854 128.833 245.25 129.75V130H242.219ZM237.422 127.797C238.328 127.797 239.188 127.562 240 127.094C240.812 126.625 241.401 126.016 241.766 125.266V121.797H239.5C235.958 121.797 234.188 122.833 234.188 124.906C234.188 125.812 234.49 126.521 235.094 127.031C235.698 127.542 236.474 127.797 237.422 127.797ZM259.031 125.516C259.031 124.734 258.734 124.13 258.141 123.703C257.557 123.266 256.531 122.891 255.062 122.578C253.604 122.266 252.443 121.891 251.578 121.453C250.724 121.016 250.089 120.495 249.672 119.891C249.266 119.286 249.062 118.568 249.062 117.734C249.062 116.349 249.646 115.177 250.812 114.219C251.99 113.26 253.49 112.781 255.312 112.781C257.229 112.781 258.781 113.276 259.969 114.266C261.167 115.255 261.766 116.521 261.766 118.062H258.859C258.859 117.271 258.521 116.589 257.844 116.016C257.177 115.443 256.333 115.156 255.312 115.156C254.26 115.156 253.438 115.385 252.844 115.844C252.25 116.302 251.953 116.901 251.953 117.641C251.953 118.339 252.229 118.865 252.781 119.219C253.333 119.573 254.328 119.911 255.766 120.234C257.214 120.557 258.385 120.943 259.281 121.391C260.177 121.839 260.839 122.38 261.266 123.016C261.703 123.641 261.922 124.406 261.922 125.312C261.922 126.823 261.318 128.036 260.109 128.953C258.901 129.859 257.333 130.312 255.406 130.312C254.052 130.312 252.854 130.073 251.812 129.594C250.771 129.115 249.953 128.448 249.359 127.594C248.776 126.729 248.484 125.797 248.484 124.797H251.375C251.427 125.766 251.812 126.536 252.531 127.109C253.26 127.672 254.219 127.953 255.406 127.953C256.5 127.953 257.375 127.734 258.031 127.297C258.698 126.849 259.031 126.255 259.031 125.516ZM269.609 109V113.094H272.766V115.328H269.609V125.812C269.609 126.49 269.75 127 270.031 127.344C270.312 127.677 270.792 127.844 271.469 127.844C271.802 127.844 272.26 127.781 272.844 127.656V130C272.083 130.208 271.344 130.312 270.625 130.312C269.333 130.312 268.359 129.922 267.703 129.141C267.047 128.359 266.719 127.25 266.719 125.812V115.328H263.641V113.094H266.719V109H269.609Z" fill="white"/>
<rect x="63" y="9" width="226" height="11" rx="2" fill="black"/>
</g>
<rect x="1" y="1" width="298" height="166" rx="19" stroke="black" stroke-width="2"/>
<defs>
<clipPath id="clip0_778_22">
<rect width="300" height="168" rx="20" fill="white"/>
</clipPath>
</defs>
</svg>
